<svg width="34" height="15" viewBox="0 0 34 15" fill="none" xmlns="http://www.w3.org/2000/svg">
<path fill-rule="evenodd" clip-rule="evenodd" d="M6.21247 1.87547C5.81399 2.36683 5.17642 2.75438 4.53885 2.69901C4.45915 2.03464 4.7713 1.32875 5.13657 0.892751C5.53505 0.387551 6.2324 0.0276822 6.79692 0C6.86333 0.692055 6.60432 1.37027 6.21247 1.87547ZM12.1233 0.823507V11.6126H13.7305V7.92398H15.9554C17.9876 7.92398 19.4155 6.47067 19.4155 4.36682C19.4155 2.26298 18.0142 0.823507 16.0085 0.823507H12.1233ZM15.5833 2.23534H13.7304V6.51916H15.5767C16.978 6.51916 17.775 5.73714 17.775 4.37379C17.775 3.01044 16.978 2.23534 15.5833 2.23534ZM22.3511 11.6957C23.3606 11.6957 24.297 11.1628 24.7221 10.3185H24.7553V11.6127H26.243V6.24233C26.243 4.68521 25.0475 3.68173 23.2078 3.68173C21.501 3.68173 20.2391 4.69905 20.1927 6.097H21.6405C21.76 5.43263 22.3511 4.99664 23.1614 4.99664C24.1443 4.99664 24.6955 5.47415 24.6955 6.35306V6.94823L22.6898 7.0728C20.8236 7.19045 19.8141 7.98631 19.8141 9.37042C19.8141 10.7684 20.8568 11.6957 22.3511 11.6957ZM21.3814 9.32886C21.3814 9.98631 21.9259 10.4154 22.7827 10.4154C23.8719 10.4154 24.6954 9.69565 24.6954 8.68525V8.07625L22.9089 8.1939C21.906 8.25618 21.3814 8.65065 21.3814 9.32886ZM28.2287 14.547C29.796 14.547 30.5332 13.9242 31.1774 12.0349L34 3.78558H32.3662L30.4734 10.1594H30.4402L28.5474 3.78558H26.8672L29.5901 11.6404L29.444 12.1179C29.1983 12.9276 28.7998 13.239 28.0892 13.239C27.963 13.239 27.7173 13.2252 27.6177 13.2114V14.5055C27.7106 14.5332 28.1091 14.547 28.2287 14.547ZM5.30205 3.17585C5.71602 3.00646 6.22854 2.79675 6.79023 2.83044C7.14887 2.85812 8.18492 2.96885 8.84906 3.99309C8.84601 3.99547 8.83927 4.00004 8.82927 4.00682C8.66496 4.11816 7.62117 4.82548 7.63369 6.22151C7.64616 7.88472 8.94633 8.50496 9.11644 8.58611C9.12754 8.59141 9.13464 8.59525 9.13464 8.59525C9.13392 8.5975 9.1326 8.60195 9.13066 8.60849C9.09672 8.7229 8.8731 9.47679 8.36424 10.2493C7.8927 10.969 7.40788 11.6749 6.63748 11.6887C6.27494 11.6955 6.03072 11.5855 5.77641 11.471C5.50896 11.3505 5.23034 11.2251 4.79118 11.2251C4.33624 11.2251 4.04488 11.3539 3.76442 11.4779C3.5208 11.5856 3.2854 11.6897 2.95816 11.7026C2.21432 11.7303 1.64981 10.9413 1.17827 10.2216C0.21527 8.76827 -0.521923 6.12462 0.474284 4.33912C0.959104 3.44637 1.84241 2.8858 2.79212 2.87196C3.20646 2.86411 3.60157 3.02767 3.94717 3.17074C4.21092 3.27992 4.44582 3.37716 4.63843 3.37716C4.81006 3.37716 5.03565 3.28486 5.30205 3.17585Z" fill="black" style="fill:black;fill-opacity:1;"/>
</svg>
