<svg width="34" height="14" viewBox="0 0 34 14" fill="none" xmlns="http://www.w3.org/2000/svg">
<path fill-rule="evenodd" clip-rule="evenodd" d="M15.6809 10.951V6.84251H17.8014C18.6703 6.84251 19.4037 6.55135 20.0016 5.97713L20.1451 5.83155C21.2372 4.64268 21.1655 2.79062 20.0016 1.6907C19.4197 1.10839 18.6225 0.792977 17.8014 0.809152H14.3975V10.951H15.6809ZM15.6811 5.59694V2.05457H17.8338C18.2962 2.05457 18.7347 2.2325 19.0616 2.556C19.7553 3.23536 19.7712 4.36763 19.1015 5.07125C18.7746 5.41902 18.3122 5.61312 17.8338 5.59694H15.6811Z" fill="#3C4043" style="fill:#3C4043;fill:color(display-p3 0.2353 0.2510 0.2627);fill-opacity:1;"/>
<path fill-rule="evenodd" clip-rule="evenodd" d="M26.1319 4.55369C25.5818 4.04418 24.8325 3.78537 23.8839 3.78537C22.6642 3.78537 21.7475 4.23828 21.1416 5.136L22.2736 5.8558C22.6881 5.24114 23.2541 4.93381 23.9716 4.93381C24.426 4.93381 24.8644 5.10365 25.2072 5.41098C25.542 5.70214 25.7333 6.12269 25.7333 6.56751V6.86675C25.2391 6.59177 24.6173 6.4462 23.852 6.4462C22.9592 6.4462 22.2417 6.65647 21.7076 7.08512C21.1735 7.51376 20.9025 8.07989 20.9025 8.79969C20.8865 9.45479 21.1655 10.0775 21.6598 10.4981C22.162 10.951 22.7997 11.1774 23.5491 11.1774C24.4339 11.1774 25.1354 10.7812 25.6695 9.98857H25.7253V10.951H26.953V6.67265C26.953 5.77492 26.6819 5.06321 26.1319 4.55369ZM22.6485 9.67313C22.3854 9.47902 22.2259 9.16361 22.2259 8.82393C22.2259 8.44381 22.4013 8.1284 22.7442 7.87768C23.095 7.62696 23.5335 7.49756 24.0517 7.49756C24.7693 7.48947 25.3274 7.65123 25.726 7.97473C25.726 8.52469 25.5108 9.00186 25.0882 9.40624C24.7055 9.79444 24.1873 10.0128 23.6451 10.0128C23.2863 10.0209 22.9355 9.89958 22.6485 9.67313Z" fill="#3C4043" style="fill:#3C4043;fill:color(display-p3 0.2353 0.2510 0.2627);fill-opacity:1;"/>
<path d="M34 4.01181L29.7112 14H28.3879L29.9823 10.5062L27.1682 4.01181H28.5633L30.5961 8.99378H30.62L32.605 4.01181H34Z" fill="#3C4043" style="fill:#3C4043;fill:color(display-p3 0.2353 0.2510 0.2627);fill-opacity:1;"/>
<path d="M11.25 5.95278C11.25 5.55649 11.2182 5.1602 11.1544 4.77199H5.74159V7.01226H8.84258C8.71504 7.73206 8.30051 8.37907 7.69466 8.78345V10.2392H9.54409C10.6282 9.22827 11.25 7.73206 11.25 5.95278Z" fill="#4285F4" style="fill:#4285F4;fill:color(display-p3 0.2588 0.5216 0.9569);fill-opacity:1;"/>
<path d="M5.74179 11.6464C7.2883 11.6464 8.59546 11.1289 9.54409 10.2392L7.69466 8.78345C7.1765 9.1393 6.51504 9.34146 5.74179 9.34146C4.24311 9.34146 2.9756 8.31433 2.52122 6.93944H0.615979V8.44373C1.58853 10.409 3.57348 11.6464 5.74179 11.6464Z" fill="#34A853" style="fill:#34A853;fill:color(display-p3 0.2039 0.6588 0.3255);fill-opacity:1;"/>
<path d="M2.52122 6.93944C2.28203 6.21964 2.28226 5.43529 2.52145 4.70741V3.2112H0.615912C-0.205304 4.85298 -0.205304 6.79401 0.615912 8.4358L2.52122 6.93944Z" fill="#FBBC04" style="fill:#FBBC04;fill:color(display-p3 0.9843 0.7373 0.0157);fill-opacity:1;"/>
<path d="M5.74179 2.30532C6.56287 2.28915 7.35207 2.60456 7.94198 3.17878L9.58415 1.51273C8.53986 0.526046 7.16872 -0.0158232 5.74179 0.000351981C3.57348 0.000351981 1.58846 1.24591 0.615912 3.2112L2.52122 4.71543C2.9756 3.33245 4.24311 2.30532 5.74179 2.30532Z" fill="#EA4335" style="fill:#EA4335;fill:color(display-p3 0.9176 0.2627 0.2078);fill-opacity:1;"/>
</svg>
