<svg width="12" height="14" viewBox="0 0 12 14" fill="none" xmlns="http://www.w3.org/2000/svg">
<path fill-rule="evenodd" clip-rule="evenodd" d="M3.64298 0.976311C4.2681 0.351189 5.11595 0 6 0C6.88406 0 7.7319 0.351189 8.35702 0.976311C8.98215 1.60143 9.33334 2.44928 9.33334 3.33333V4H10.6667C11.0134 4 11.3022 4.26577 11.331 4.6113L11.9977 12.6113C12.0132 12.7971 11.9502 12.9809 11.8239 13.1181C11.6977 13.2553 11.5198 13.3333 11.3333 13.3333H0.666669C0.480234 13.3333 0.302317 13.2553 0.176081 13.1181C0.0498439 12.9809 -0.0131776 12.7971 0.00230497 12.6113L0.668972 4.6113C0.697766 4.26577 0.98661 4 1.33334 4H2.66667V3.33333C2.66667 2.44928 3.01786 1.60143 3.64298 0.976311ZM2.66667 5.33333V6C2.66667 6.36819 2.96515 6.66667 3.33334 6.66667C3.70153 6.66667 4 6.36819 4 6V5.33333H8V6C8 6.36819 8.29848 6.66667 8.66667 6.66667C9.03486 6.66667 9.33334 6.36819 9.33334 6V5.33333H10.0532L10.6088 12H1.3912L1.94676 5.33333H2.66667ZM8 4H4V3.33333C4 2.8029 4.21072 2.29419 4.58579 1.91912C4.96086 1.54405 5.46957 1.33333 6 1.33333C6.53044 1.33333 7.03914 1.54405 7.41422 1.91912C7.78929 2.29419 8 2.8029 8 3.33333V4Z" fill="#0C122A" style="fill:#0C122A;fill:color(display-p3 0.0471 0.0706 0.1647);fill-opacity:1;"/>
</svg>
